<svg id="Layer_1" data-name="Layer 1" xmlns="http://www.w3.org/2000/svg" viewBox="0 0 293.33 114.33"><title>Web</title><path d="M105.75,99.75V89.59h1.35V99.75Zm11.19,0V89.59h1.39l5.33,8v-8H125V99.75h-1.38l-5.33-8v8Zm17.76,0V89.59h3.5a8.34,8.34,0,0,1,1.81.14,3.57,3.57,0,0,1,1.5.73,4.18,4.18,0,0,1,1.2,1.74,6.92,6.92,0,0,1,.4,2.41,7,7,0,0,1-.27,2,4.8,4.8,0,0,1-.7,1.49,3.82,3.82,0,0,1-.92.92,4,4,0,0,1-1.21.51,7.32,7.32,0,0,1-1.64.17Zm1.35-1.19h2.17a5,5,0,0,0,1.57-.19,2.17,2.17,0,0,0,.92-.53,3.35,3.35,0,0,0,.74-1.29,6.23,6.23,0,0,0,.27-2,4.72,4.72,0,0,0-.53-2.45A2.53,2.53,0,0,0,139.92,91a5.21,5.21,0,0,0-1.74-.21h-2.13v7.78Zm16.62,1.19V89.59H154V99.75Zm10.1,0,3.9-10.16h1.48l4.13,10.16h-1.53l-1.17-3.08H165.3l-1.11,3.08Zm2.92-4.17h3.47l-1.06-2.82c-.32-.86-.56-1.56-.73-2.12a14.93,14.93,0,0,1-.56,2l-1.12,3Zm55.81-6h1.35v5.87a7,7,0,0,1-.35,2.43,2.92,2.92,0,0,1-1.24,1.46,4.42,4.42,0,0,1-2.37.57,4.89,4.89,0,0,1-2.34-.49A2.81,2.81,0,0,1,215.26,98a6.74,6.74,0,0,1-.39-2.54V89.59h1.35v5.86a5.59,5.59,0,0,0,.25,2,1.83,1.83,0,0,0,.84,1,2.87,2.87,0,0,0,1.46.34,2.76,2.76,0,0,0,2.1-.67,3.89,3.89,0,0,0,.63-2.59V89.59Zm9.41,10.16,3.89-10.16h1.48l4.14,10.16h-1.53l-1.18-3.08h-4.28l-1.1,3.08Zm2.92-4.17h3.46l-1.06-2.82c-.32-.86-.56-1.56-.73-2.12a12.35,12.35,0,0,1-.56,2l-1.11,3Zm15,4.17V89.59h7.34v1.19h-6V93.9h5.6v1.19h-5.6v3.47h6.23v1.19Z" transform="translate(-34.67 -2.55)" fill="#fff" fill-rule="evenodd"/><path d="M193.33,94.12a1.7,1.7,0,1,1-1.71,1.7A1.7,1.7,0,0,1,193.33,94.12Z" transform="translate(-34.67 -2.55)" fill="#fff" fill-rule="evenodd"/><rect y="13.77" width="248.9" height="46.95" fill="#f6921e"/><path d="M51,27.5h16.5a10,10,0,0,1,6.34,1.76A5.36,5.36,0,0,1,76,33.6a5.07,5.07,0,0,1-1.58,3.74A7.23,7.23,0,0,1,71.37,39a8.42,8.42,0,0,1,4.52,2.19,5.49,5.49,0,0,1,1.45,3.88,6,6,0,0,1-1,3.45,7.15,7.15,0,0,1-2.82,2.4,10.49,10.49,0,0,1-3.35.8c-2,.23-3.3.34-4,.34H51V27.5Zm8.9,9.62H63.7a5,5,0,0,0,2.87-.61,2.08,2.08,0,0,0,.81-1.76,2,2,0,0,0-.81-1.68,4.92,4.92,0,0,0-2.82-.6H59.87v4.65Zm0,9.64h4.5a5.57,5.57,0,0,0,3.2-.68,2.22,2.22,0,0,0,.94-1.88,2,2,0,0,0-.93-1.74,5.79,5.79,0,0,0-3.24-.67H59.87Z" transform="translate(-34.67 -2.55)" fill="#231f20" fill-rule="evenodd"/><rect x="103.59" y="25.13" width="8.65" height="24.16" fill="#231f20"/><path d="M258.86,49.14H248.1l-.94,2.71h-8.89l10.58-24.16h9.49l10.59,24.16h-9.11l-1-2.71ZM257,43.8,253.5,34,250,43.8Z" transform="translate(-34.67 -2.55)" fill="#231f20" fill-rule="evenodd"/><polygon points="130.49 25.14 143.79 25.14 148.93 38.02 154.03 25.14 167.29 25.14 167.29 49.3 158.38 49.3 158.38 36.02 152.63 49.3 145.15 49.3 139.3 36.02 139.3 49.3 130.5 49.3 130.49 25.14" fill="#231f20" fill-rule="evenodd"/><polygon points="58.57 25.14 67.38 25.14 67.38 34.28 77.01 34.28 77.01 25.14 85.85 25.14 85.86 49.3 77.01 49.3 77.01 40.22 67.38 40.22 67.38 49.3 58.58 49.3 58.57 25.14" fill="#231f20" fill-rule="evenodd"/><rect x="248.93" y="13.77" width="44.39" height="46.95" fill="#fff100"/><rect x="0.01" y="62.17" width="293.31" height="19.34" fill="#9d0b0f"/><polygon points="259.85 19.68 259.75 19.57 259.53 19.44 259.4 19.36 259.24 19.34 258.9 19.36 258.6 19.48 257.96 19.84 256.67 19.18 255.91 18.85 255.4 18.75 254.94 18.7 254.59 18.76 254.25 18.89 253.83 19.2 253.77 19.34 253.75 19.48 253.79 19.59 253.8 19.74 253.85 19.85 256.31 21.75 258.17 23.36 260.62 25.72 263.11 28.18 263.85 29.48 264.37 29.95 266.11 32.04 264.09 35.69 264.32 36.01 261.2 43.5 265.89 45.33 266.53 41.48 264.74 40.33 264.87 39.54 266.89 40.97 269.61 41.02 269.52 41.61 267.17 41.66 266.58 45.56 268.23 45.8 270.65 52.56 270.65 53.14 270.39 53.63 268.46 54.96 267.51 55.76 267.72 56.35 268.84 57.79 270.33 56.78 272.63 54.43 272.84 55.44 273.22 57.9 273.48 59.02 273.8 59.29 274.5 58.8 275.03 58.42 275.67 57.95 276.1 57.52 276.47 57.04 274.87 54.53 274.66 53.95 274.17 52.51 273.22 48.45 272.95 46.32 272.96 45.17 273.2 39.81 273.68 37.67 275.39 32.86 276.99 29.21 279.32 25.52 280.93 23.14 282.63 21.14 285.26 18.85 286.87 17.79 288.37 17.29 288.18 16.71 287.3 16.33 286.43 16.22 285.31 16.37 283.8 16.91 283.41 16.37 283.07 15.69 282.68 15.3 282.44 15.79 282.39 17.15 282.19 17.68 281.71 18.76 279.66 21.53 277.24 24.3 276.89 23.52 276.36 22.74 275.92 22.36 275.48 22.26 274.9 22.55 274.46 22.84 274.07 22.16 273.58 21.53 273.19 21.19 272.66 20.89 271.98 20.89 271.3 21.09 270.72 20.94 269.55 20.65 268.67 20.75 267.5 20.94 265.9 21.86 265.07 22.99 264.93 24.01 264.88 25.08 264.88 25.86 260.93 22.84 259.19 21.28 258.89 20.85 259.04 20.36 259.28 20.02 259.85 19.68" fill="#fff" fill-rule="evenodd"/><path d="M303.28,35.16a.37.37,0,1,1-.37.37.38.38,0,0,1,.37-.37Zm5.85-3.51a.27.27,0,0,1,.13.24.26.26,0,0,1-.18.25.8.8,0,0,0-.21-.15l.26-.34Zm.13-.2a.52.52,0,0,1,.25.44.51.51,0,0,1-.29.46.71.71,0,0,1-.6,1,.56.56,0,0,1,.05.25.72.72,0,0,1-.61.71.69.69,0,0,1,0,.25.74.74,0,0,1-.74.75h-.08a.86.86,0,0,1,0,.24.73.73,0,0,1-1.13.62.85.85,0,0,1,0,.23.8.8,0,0,1-1.46.45.77.77,0,0,1-.66.36.78.78,0,0,1-.78-.78,1.1,1.1,0,0,1,0-.18h0a.7.7,0,0,1-.71-.71.68.68,0,0,1,.07-.32.72.72,0,0,1-.54-.69.69.69,0,0,1,.13-.41.76.76,0,0,1-.42-.37,19.3,19.3,0,0,0-2.54,4.62,40.13,40.13,0,0,0,8.59,2.6A38.83,38.83,0,0,1,314.42,27h0A26,26,0,0,1,318.81,22a13.37,13.37,0,0,1,3.33-2.15,4,4,0,0,0-1.63.42,4,4,0,0,1,2.21-.87,2.69,2.69,0,0,0-2,.39A2.67,2.67,0,0,1,322.1,19a3.27,3.27,0,0,0-2,.51c.13-.26.59-.46,1.05-.67a10.72,10.72,0,0,0-3,1.18s-.29-.27-.3-.44c-.13-.5-.07-.88-.45-1.16a4.63,4.63,0,0,1-.13,1.3c-.25.81-.67,2-2.92,4.7l-2.55,3a3.62,3.62,0,0,1-.14.7c-.61,1-1.19,1.29-1.75,1.31a4.44,4.44,0,0,1-.51,1.71l-.2.31Zm-.42.93a.37.37,0,0,1,.1.25.38.38,0,0,1-.38.38.39.39,0,0,1-.37-.32,4.44,4.44,0,0,0,.44-.43h0a.59.59,0,0,0,.19.11Zm-.88.84a.38.38,0,1,1-.37.37.37.37,0,0,1,.37-.37Zm-.68.59a1.46,1.46,0,0,1,0-.22.85.85,0,0,1,0-.23l0,0,0,0a5.54,5.54,0,0,1-4.09.12.72.72,0,0,1-.13.38.73.73,0,0,1,.49.68.72.72,0,0,1-.08.32.72.72,0,0,1,.54.69s0,.08,0,.11h.11a.79.79,0,0,1,.64.33.77.77,0,0,1,.68-.38.87.87,0,0,1,.45.13.52.52,0,0,1,0-.18.74.74,0,0,1,.73-.74h.07a1.09,1.09,0,0,1,0-.26.75.75,0,0,1,.67-.74Zm.08.35a.4.4,0,0,1,.39.39.39.39,0,0,1-.39.39.38.38,0,0,1-.39-.39.39.39,0,0,1,.39-.39Zm-.78,1a.39.39,0,1,1-.38.39.39.39,0,0,1,.38-.39Zm-1.16.82a.42.42,0,0,1,.42.42.42.42,0,0,1-.84,0,.42.42,0,0,1,.42-.42Zm-1.32,0a.41.41,0,1,1,0,.82.41.41,0,0,1,0-.82Zm-1.28-2.7a.5.5,0,0,1,0,.12.38.38,0,1,1-.75,0,.15.15,0,0,1,0-.06l.23-.28.07,0,.42.25Zm0,.83a.38.38,0,1,1,0,.75.38.38,0,0,1,0-.75Zm0,14.36c.79,2.23,1.57,4.48,2.36,6.71a.57.57,0,0,1-.27.74l-2.85,2c-.18.23-.26.54.08.68,0,.27.15.29.22.44s.11.31.3.4a.48.48,0,0,0,.38.44c0,.37.35.87.9.41A12.4,12.4,0,0,0,307.32,57c.08,1.23.17,2.46.3,3.69.36,2,1.51,1.17,1.58.63.4.14.67-.1.65-.41a.36.36,0,0,0,.41-.36c.45.08.51-.28.49-.51.53,0,.73-.44.4-.9s-.83-1.33-1.28-2A28.63,28.63,0,0,1,308,48.71h0a39.85,39.85,0,0,1,.47-7.5,39.26,39.26,0,0,1,6.34-13.85h0c2.58-4.1,5.73-6.46,8.43-7.43.33-1.2-1.43-2.1-4.82-.67a2.56,2.56,0,0,0-.36-1c-.38-.64-.77-.81-1.15-.51a6.18,6.18,0,0,1-1.35,4.49q-1.83,2.11-3.65,4.25a3.7,3.7,0,0,0-.16-.7c-.27-.76-.7-1.31-1.44-1.38a2.37,2.37,0,0,0-1.13.54c-.45-.86-1-1.58-1.66-1.76a2.48,2.48,0,0,0-1.54.15,4.85,4.85,0,0,0-5.77,1.28,4.12,4.12,0,0,0-.8,3.52h0a.3.3,0,0,1,0,.1l-5.26-4.4a1,1,0,0,1-.24-1l.65-.59c-.06-.28-.28-.41-.6-.43h-.25a2.1,2.1,0,0,0-1.14.52,6.45,6.45,0,0,0-2.82-1.18l-.12,0-.67.12-.63.47,0,.62,1.17.91h0l0,0,0,0h0a30,30,0,0,1,4.92,4.27l3.24,3.35a1.87,1.87,0,0,0,.08.32,3.81,3.81,0,0,0,1.37,1.61h0a6.68,6.68,0,0,1,1.43,1.63,25.32,25.32,0,0,0-2,3.81,1.19,1.19,0,0,0,.16.08A23.5,23.5,0,0,0,295.61,46a13.39,13.39,0,0,0,5,1.88l.69-4.06-1.79-1.22.06-.48,2,1.43,2.45,0,0,.36-2.34.15-.6,4c.56.17,1.12.32,1.68.44Zm4.57.29a63.67,63.67,0,0,0,1.69,7.4,2.59,2.59,0,0,0,.66,1.39c.42.71.73,1.21,1,1.66.32.29.05.68-.19.3s-.58-.21-.27.24,0,.68-.22.22c-.07-.32-.51-.19-.2.22.21.15.12.54-.15.16s-.69-.35-.25.33c.08.23-.05.41-.33.16-.11-.58-.69-.48-.35.08s-.39,1.06-.6.19a38.41,38.41,0,0,1-.38-4.13,2.45,2.45,0,0,0-.35-1.11q-1.31-3.55-2.6-7.09a13.27,13.27,0,0,0,2.52,0Zm-3.22-.06q1.43,3.59,2.83,7.17a.47.47,0,0,1,.09.6A16.19,16.19,0,0,1,303.79,60c-.26.18-.52.06-.16-.43.43-.12.21-.66-.22-.22s-.7.15-.19-.19.07-.63-.22-.25-.55.12-.08-.13c.26-.2.1-.42-.14-.22-.3.39-.55.08-.16-.19s.12-.45-.11-.21c-.39.38-.46,0-.05-.17l3-2.06a.78.78,0,0,0,.1-1c-.67-2.08-1.34-4.17-2-6.25q.3.06.6.09Zm-2.22-16a14.06,14.06,0,0,0-.95,1.21c-.26-.27-.53-.53-.82-.78a2.74,2.74,0,0,0,1.76-.44ZM289.85,23l0,0-.68-.44,0-.09,1,.59.17.06-.06-.39-1.42-.79,0-.08,1.39.74h.42l-1.28-.87-.16-.13h.15l1.36.86.25-.1L291,22.1l-.91-.6,0-.07a7.91,7.91,0,0,1,2.18,1.27.92.92,0,0,0,.71.09c.27-.17.49-.53.79-.51a1.46,1.46,0,0,0-.2,1.51L299.36,29a2.59,2.59,0,0,0-1.26.69,2.24,2.24,0,0,0-.25.55c-2.53-2.4-5.12-5.44-8-7.25Zm8.86,7.57c0-.17.18-.34.54-.5a1,1,0,0,1,.8.16.23.23,0,0,1-.06.39c-.48,0-.54-.13-.64-.08s-.31.16-.45.23-.18-.08-.19-.2Zm10.72-4.86a1.24,1.24,0,0,1,.67-.64c.69.13,1.13.7,1.23,1.92a2.59,2.59,0,0,1-.85,1.76.87.87,0,0,1-.48.06l-.07-1.35h0l-.1-.44c.23.07.49.05.56-.27a1.3,1.3,0,0,1,.06-.61c.11-.1.24-.11.37-.27s0-.38-.18-.43a.85.85,0,0,0-.58.3,2,2,0,0,0-.36.71l-.36-1,.11.28Zm-9.6,4h0a16.3,16.3,0,0,0,.7,1.63,6.8,6.8,0,0,0,.88,1.05,1.87,1.87,0,0,1-2.38-.21,2.44,2.44,0,0,1-.66-2,1.1,1.1,0,0,1,1.42-.47Zm7.55,3.06A5.12,5.12,0,0,0,309,30.87a6,6,0,0,0,.29-3.2h0a8.22,8.22,0,0,0-1-2.62,2.85,2.85,0,0,0-2.16-1v.05a4.74,4.74,0,0,1-1.93,2.58l.81-1.59a6.51,6.51,0,0,1-2.31,2.07,5,5,0,0,0,1.47-2.41c-1.07,1.69-2.05,2.63-2.94,2.8a4.71,4.71,0,0,0,1.56-2.09,12.35,12.35,0,0,0-1.59,1.18l.15-.07a4.33,4.33,0,0,0-.8,2.78,4.41,4.41,0,0,0,3.78,3.87,4,4,0,0,0,3.12-.59v.06Zm-3.76-1.1a4.45,4.45,0,0,0,2.13-.55,5.47,5.47,0,0,0,1.8-1.84l0,0a3.74,3.74,0,0,1-.89,2.08,2.23,2.23,0,0,1-3.06.33Zm4.49-2.84a4.72,4.72,0,0,1-1.36,3.09,2.5,2.5,0,0,1-2.46.54,8.53,8.53,0,0,1-1.45-.71,1.08,1.08,0,0,1-.56,0,.65.65,0,0,1-.3-.91A.58.58,0,0,1,303,31c1.87.24,3.44-.56,4.54-2.87-.2-.48,0-1,.57-1a.62.62,0,0,1,.51.79l-.54.75Zm-4.13.8a1.08,1.08,0,0,0,1.46-.65.33.33,0,0,1,.29.11,1,1,0,0,1,0,.62,1.26,1.26,0,0,1-1.14.73.82.82,0,0,1-.73-.61c0-.13.06-.19.16-.2Zm1.18-2.85c-.08-.3,0-.6.43-.91a1,1,0,0,1,1.19.23c0,.21,0,.34-.18.37a.82.82,0,0,0-.36,0c-.3.17-.44.35-.66.48a.33.33,0,0,1-.42-.15Zm.76.28c.31-.08.65.19.76.59a.71.71,0,0,1-.34.9c-.3.08-.64-.18-.76-.59a.71.71,0,0,1,.34-.9Zm-3.48,1.57c.3-.08.64.17.75.59a.68.68,0,0,1-.34.89c-.3.09-.64-.18-.75-.58a.7.7,0,0,1,.34-.9Zm.4-.24a1.59,1.59,0,0,0-.65,0,1.17,1.17,0,0,0-.7.57A.92.92,0,0,1,303,27.79C303.07,27.94,303,28.32,302.84,28.31Z" transform="translate(-34.67 -2.55)" fill="#231f20" fill-rule="evenodd"/><polygon points="141.53 65.01 209.3 27.09 176.82 65.01 141.53 65.01" fill="#fff100" fill-rule="evenodd"/><path d="M197.77,65l-.1-.19-.13-.2,0,0a.63.63,0,0,0,.32-.08.35.35,0,0,0,.2-.3,2.23,2.23,0,0,0-.34-.75l-1.24-2.09a4.81,4.81,0,0,0-.57-.88c-.07,0-.19,0-.34.08l-.16.1-.1-.16c.18-.09.41-.21.68-.37l.75-.47.09.16-.16.1c-.12.09-.2.15-.21.19a.24.24,0,0,0,0,.12,2.93,2.93,0,0,0,.24.42l1.22,2.1a3,3,0,0,1,.37.78,1.5,1.5,0,0,1,0,.84.92.92,0,0,1-.4.57l-.13.08Zm1.35-4.3a4.81,4.81,0,0,1,.41-.27,2.5,2.5,0,0,1,.67-.32c.09,0,.17.07.27.23l.08.14.16-.1-.33-.53q-.13-.23-.33-.6l-.16.1.09.15c.08.14.1.24.07.3a2.9,2.9,0,0,1-.64.42c-.12.08-.26.15-.43.24l-.29-.5-.22-.37c-.08-.16-.17-.31-.26-.46a7.77,7.77,0,0,1,.68-.44,2.26,2.26,0,0,1,.77-.31,2.89,2.89,0,0,1,.29.43l.16-.1a3.13,3.13,0,0,1-.33-.81c-.17.08-.32.17-.47.25l-.44.26-.93.57-.34.18-.26.15-.26.15.09.15.2-.09a.66.66,0,0,1,.23-.08.12.12,0,0,1,.09,0,.81.81,0,0,1,.18.22,5.81,5.81,0,0,1,.33.53l.79,1.33c.2.35.33.58.38.69a.39.39,0,0,1,0,.24.57.57,0,0,1-.24.2l-.08,0,.09.16.75-.47.94-.53.39-.21.53-.35-.07-.11a7.55,7.55,0,0,1-.35-.75l-.17.1a5.55,5.55,0,0,1,.19.6,1.49,1.49,0,0,1-.21.22c-.12.08-.26.18-.45.29a8.46,8.46,0,0,1-.77.42c-.07-.1-.16-.25-.28-.46l-.21-.34-.35-.6Zm4-1.1-.25-1.73c-.05-.29-.14-.85-.28-1.67l.15-.09c.27.25.62.55,1.06.91l1.55,1.31-.46-1.8c0-.18-.14-.5-.28-1a.19.19,0,0,0,0-.1s0,0-.07,0a.6.6,0,0,0-.21.07l-.22.11-.1-.15c.24-.12.42-.22.55-.3s.31-.18.51-.32l.09.15L205,55a.21.21,0,0,0-.1.11,6.68,6.68,0,0,0,.23,1.24c.24,1,.47,1.87.7,2.67l-.25.14-.21-.2L204,57.9,203,57l.2,1.37c.11.82.23,1.48.34,2l-.24.14-.48-.52c-.14-.16-.29-.32-.47-.49l-1.48-1.58a1.29,1.29,0,0,0-.3-.25.56.56,0,0,0-.23.07l-.1.06-.09-.15c.23-.13.44-.23.61-.34l.65-.4.1.15-.16.09c-.11.07-.18.11-.19.15a.11.11,0,0,0,0,.13.21.21,0,0,0,.06.08l.65.71,1.25,1.35Zm4.19-3.7.41-.26a2.35,2.35,0,0,1,.68-.33c.08,0,.17.07.26.23l.08.14.17-.1c-.14-.2-.25-.37-.35-.53s-.19-.34-.32-.6l-.17.1.1.16c.08.14.1.24.07.29a3.28,3.28,0,0,1-.63.43l-.44.23-.29-.49-.21-.38-.27-.46c.23-.16.45-.31.68-.44a2.43,2.43,0,0,1,.77-.3,2.34,2.34,0,0,1,.28.42l.18-.09a2.88,2.88,0,0,1-.34-.81,5.19,5.19,0,0,0-.47.25l-.44.26-.93.57-.33.18-.26.14-.27.16.09.15.2-.09a.8.8,0,0,1,.23-.09l.09,0a.81.81,0,0,1,.18.22c.09.14.21.32.33.54l.79,1.33c.2.35.33.58.38.69a.33.33,0,0,1,0,.24c0,.05-.1.11-.24.19l-.08,0,.09.15.75-.46.94-.53.39-.22c.17-.1.35-.22.53-.35l-.07-.1a7.55,7.55,0,0,1-.35-.75l-.16.1c.08.24.14.43.19.6l-.22.22-.44.29c-.28.16-.53.3-.78.42l-.28-.47-.21-.34-.35-.6Zm3.91-.4a5.42,5.42,0,0,0,.48-.26c.3-.17.54-.33.7-.44a2.86,2.86,0,0,0,.33-.29l-.19-.66.16-.09c.14.32.27.63.41.91a4.07,4.07,0,0,1-.58.39l-1.17.66-.71.46-.08-.13a.48.48,0,0,0,.13-.32,6.84,6.84,0,0,0-.42-.79l-.79-1.34a5.82,5.82,0,0,0-.51-.79c-.06,0-.14,0-.25,0l-.27.16-.08-.16c.38-.22.65-.36.77-.44a7.67,7.67,0,0,0,.68-.42l.09.16-.31.18c-.08,0-.12.1-.12.17a3.74,3.74,0,0,0,.34.64l.91,1.54.41.69.07.14Zm3.11-1.82-.07-.15-.42-.68-.91-1.55a3.7,3.7,0,0,1-.33-.64.19.19,0,0,1,.12-.17l.3-.18-.09-.15-.67.42-.78.44.09.14.26-.15c.12-.06.2-.07.26,0a5.58,5.58,0,0,1,.51.8l.78,1.33a4.11,4.11,0,0,1,.42.79c0,.08,0,.19-.12.33l.08.12c.31-.21.55-.37.71-.46l1.16-.65a5.14,5.14,0,0,0,.58-.39c-.13-.28-.26-.59-.41-.92l-.15.1.19.65a2.86,2.86,0,0,1-.33.29,7.8,7.8,0,0,1-.71.45l-.47.26Zm2.3-3.26.35.6.21.34.28.47.78-.42a4.09,4.09,0,0,0,.44-.3,1.39,1.39,0,0,0,.21-.21c0-.16-.1-.37-.18-.61l.16-.09c.16.37.28.62.35.75l.07.1a4.51,4.51,0,0,1-.54.35l-.38.22-.94.52-.75.47-.08-.16.07,0a.67.67,0,0,0,.24-.19.38.38,0,0,0,0-.24,6.59,6.59,0,0,0-.38-.69l-.79-1.34c-.13-.22-.23-.39-.33-.53a1.25,1.25,0,0,0-.18-.23.16.16,0,0,0-.09,0,.8.8,0,0,0-.23.09l-.2.09-.09-.15.27-.16.26-.14.33-.19.93-.56.44-.26a4.23,4.23,0,0,1,.47-.25,3.23,3.23,0,0,0,.33.8l-.16.11a3.35,3.35,0,0,0-.29-.44,2.3,2.3,0,0,0-.77.32c-.22.12-.44.27-.68.43.1.15.18.31.27.46l.21.38.29.49.44-.23a3.28,3.28,0,0,0,.63-.43s0-.15-.07-.29l-.09-.16.16-.1a6.74,6.74,0,0,0,.33.6l.33.53-.16.1-.08-.14c-.09-.15-.18-.23-.26-.23a2.5,2.5,0,0,0-.68.32,4.81,4.81,0,0,0-.41.27ZM220.45,48a1.58,1.58,0,0,0,.51-.78,1,1,0,0,0-.11-.75,1,1,0,0,0-.35-.34,1,1,0,0,0-.48-.06,1.85,1.85,0,0,0-.69.29l-.5.31-.46.28-.7.39.09.15.14-.07c.16-.1.28-.13.34-.09a4.33,4.33,0,0,1,.54.82l.69,1.17a8.92,8.92,0,0,1,.53,1c0,.08-.06.16-.2.24l-.18.11.09.15c.35-.22.6-.38.75-.46l.68-.38-.09-.15-.2.11c-.15.09-.25.11-.32.07a7.38,7.38,0,0,1-.6-.93l-.69-1.18c-.17-.29-.32-.57-.46-.84a1.72,1.72,0,0,1,.46-.4.92.92,0,0,1,.67-.15.72.72,0,0,1,.48.38.86.86,0,0,1,.1.69,1.13,1.13,0,0,1-.51.58l-.22.11,0,.1c.3.1.6.2.88.32l1.56.66a2.22,2.22,0,0,1,.27-.19l.37-.19-.09-.15-.07,0-.09,0a1.24,1.24,0,0,1-.27-.08l-.83-.33c-.41-.16-.76-.31-1.06-.45Zm2.9-3.78a2.56,2.56,0,0,0,.33.71l-.18.1-.11-.19a.52.52,0,0,0-.2-.23.62.62,0,0,0-.35,0,1.37,1.37,0,0,0-.5.18,1.06,1.06,0,0,0-.5.56.77.77,0,0,0,.08.64.75.75,0,0,0,.28.28.59.59,0,0,0,.37.05,3.11,3.11,0,0,0,.72-.28,3.15,3.15,0,0,1,.75-.26.78.78,0,0,1,.44.09.93.93,0,0,1,.35.36,1.27,1.27,0,0,1,.09,1.08,1.87,1.87,0,0,1-.89,1,2.78,2.78,0,0,1-.49.24,4.76,4.76,0,0,1-.57.13,4.81,4.81,0,0,0-.4-.77l.17-.1.07.12a1,1,0,0,0,.2.28.3.3,0,0,0,.18.05,1.17,1.17,0,0,0,.41,0A1.56,1.56,0,0,0,224,48a1.21,1.21,0,0,0,.59-.62.81.81,0,0,0-.08-.71.66.66,0,0,0-.28-.27.52.52,0,0,0-.35-.06,2.14,2.14,0,0,0-.63.23,2.89,2.89,0,0,1-.82.31.72.72,0,0,1-.47-.1,1,1,0,0,1-.39-.4,1.1,1.1,0,0,1-.11-1,1.61,1.61,0,0,1,.77-.86,2.22,2.22,0,0,1,.52-.23A2.72,2.72,0,0,1,223.35,44.22Z" transform="translate(-34.67 -2.55)" fill="#231f20" fill-rule="evenodd"/><path d="M102.29,77.58h1.6a3.31,3.31,0,0,0,2.41-.85,3.42,3.42,0,0,0,0-4.66,3.78,3.78,0,0,0-2.6-.84h-1.36v6.35Zm1.28,1.16H101V70h2.93a4.61,4.61,0,0,1,3.32,1.22,4.24,4.24,0,0,1,1.25,3.17,4.33,4.33,0,0,1-.47,2,4.23,4.23,0,0,1-2.64,2.12,7.52,7.52,0,0,1-1.83.17Zm9.39,0h-1.32V70H113v8.71ZM120.75,75l-1.28-3.3L118.16,75Zm-3.06,1.23-1,2.53h-1.4L118.83,70h1.28l3.56,8.71h-1.44l-1-2.53Zm9.66,2.53h-1.27V70h2l2.64,6.74L133.32,70h1.93v8.71H134l.08-7.55-3,7.55h-.93l-3-7.55.09,7.55Zm12.4-4.39a3.51,3.51,0,0,0,.23,1.29,2.87,2.87,0,0,0,.69,1,3.24,3.24,0,0,0,1.07.73,3.09,3.09,0,0,0,1.26.26,3.18,3.18,0,0,0,2.36-1,3.27,3.27,0,0,0,.95-2.38,3,3,0,0,0-.23-1.16,3.22,3.22,0,0,0-.66-1,3.5,3.5,0,0,0-1.11-.79,3.33,3.33,0,0,0-1.31-.26,3.21,3.21,0,0,0-1.23.24,3.06,3.06,0,0,0-1,.67A3.24,3.24,0,0,0,140,73.1a3,3,0,0,0-.26,1.25Zm-1.38,0a4.26,4.26,0,0,1,.36-1.73,4.55,4.55,0,0,1,1.06-1.48,5,5,0,0,1,1.48-.94,4.76,4.76,0,0,1,1.74-.32,4.84,4.84,0,0,1,1.77.32,4.72,4.72,0,0,1,1.49.95,4.24,4.24,0,0,1,1.4,3.2,4.73,4.73,0,0,1-.3,1.71,4.24,4.24,0,0,1-.9,1.41,4.8,4.8,0,0,1-1.58,1.1,4.9,4.9,0,0,1-1.89.37,4.66,4.66,0,0,1-1.89-.38,4.55,4.55,0,0,1-1.56-1.12,4.1,4.1,0,0,1-.88-1.4,4.66,4.66,0,0,1-.3-1.69Zm13.73,4.41h-1.33V70h1.36l4.48,6.6-.06-6.6h1.3v8.71h-1.27L152,72l.09,6.78Zm10.47-1.16h1.6a3.29,3.29,0,0,0,2.4-.85,3,3,0,0,0,.89-2.3,3,3,0,0,0-.94-2.36,3.75,3.75,0,0,0-2.6-.84h-1.35v6.35Zm1.27,1.16h-2.56V70h2.94a4.57,4.57,0,0,1,3.31,1.22,4.21,4.21,0,0,1,1.26,3.17,4.33,4.33,0,0,1-.47,2A4.15,4.15,0,0,1,167,78a4.24,4.24,0,0,1-1.28.59,7.61,7.61,0,0,1-1.84.17Zm7.59-2.5h1.19a1.59,1.59,0,0,0,.42,1.07,1.31,1.31,0,0,0,1,.41,1.51,1.51,0,0,0,1.1-.41,1.46,1.46,0,0,0,.41-1.08,1.23,1.23,0,0,0-.31-.91,2.85,2.85,0,0,0-1.25-.61l-.17,0a2.93,2.93,0,0,1-1.66-1,2.15,2.15,0,0,1-.34-.63,2,2,0,0,1-.12-.71,2.36,2.36,0,0,1,2.51-2.49,2.34,2.34,0,0,1,1.69.61,2.46,2.46,0,0,1,.71,1.7h-1.23a1.17,1.17,0,0,0-.37-.84,1.13,1.13,0,0,0-.84-.32,1.21,1.21,0,0,0-.89.35,1.32,1.32,0,0,0-.34.92.87.87,0,0,0,.07.37,1,1,0,0,0,.19.33,2.32,2.32,0,0,0,1.15.52l.62.17a2.9,2.9,0,0,1,1.38,1,2.41,2.41,0,0,1,.46,1.47,2.75,2.75,0,0,1-.75,2,2.63,2.63,0,0,1-2,.78,2.53,2.53,0,0,1-1.89-.74A2.68,2.68,0,0,1,171.43,76.24Z" transform="translate(-34.67 -2.55)" fill="#fff" fill-rule="evenodd"/><path d="M52.22,74.35h5.64a4.76,4.76,0,0,1-1.38,3.3,4.46,4.46,0,0,1-3.27,1.27,4.69,4.69,0,0,1-1.89-.38,4.55,4.55,0,0,1-1.56-1.12,4.1,4.1,0,0,1-.88-1.4,4.66,4.66,0,0,1-.3-1.69A4.11,4.11,0,0,1,49,72.6a4.37,4.37,0,0,1,1-1.48,4.55,4.55,0,0,1,1.49-1,5.26,5.26,0,0,1,1.82-.31,4.72,4.72,0,0,1,2.43.62,4,4,0,0,1,1.57,1.76H55.68a2.93,2.93,0,0,0-1.08-.84,3.45,3.45,0,0,0-1.39-.28,3.21,3.21,0,0,0-1.23.24A3.06,3.06,0,0,0,51,72a3.39,3.39,0,0,0-.73,1.07A3,3,0,0,0,50,74.35a3.73,3.73,0,0,0,.23,1.29,3,3,0,0,0,.69,1,3.18,3.18,0,0,0,1.08.73,3,3,0,0,0,1.25.26A3.2,3.2,0,0,0,55,77.14a3.86,3.86,0,0,0,1.31-1.56H52.22V74.35Zm9.73,0a3.52,3.52,0,0,0,.24,1.29,3,3,0,0,0,.68,1,3.28,3.28,0,0,0,1.08.73,3.09,3.09,0,0,0,1.26.26,3.2,3.2,0,0,0,2.36-1,3.23,3.23,0,0,0,1-2.38,3,3,0,0,0-.23-1.16,3.08,3.08,0,0,0-.67-1,3.3,3.3,0,0,0-1.11-.79,3.33,3.33,0,0,0-2.53,0A3.06,3.06,0,0,0,63,72a3.39,3.39,0,0,0-.73,1.07A3.06,3.06,0,0,0,62,74.35Zm-1.37,0a4.26,4.26,0,0,1,.36-1.73A4.55,4.55,0,0,1,62,71.12a5,5,0,0,1,1.48-.94,4.76,4.76,0,0,1,1.74-.32,4.66,4.66,0,0,1,3.27,1.27,4.51,4.51,0,0,1,1,1.46,4.43,4.43,0,0,1,.35,1.74,4.73,4.73,0,0,1-.3,1.71,4.24,4.24,0,0,1-.9,1.41,4.8,4.8,0,0,1-1.58,1.1,5,5,0,0,1-1.89.37,4.74,4.74,0,0,1-1.9-.38,4.61,4.61,0,0,1-1.55-1.12,4,4,0,0,1-.88-1.4,4.66,4.66,0,0,1-.3-1.69Zm16.71,4.41H73V70h1.33v7.51h3v1.2Zm4.2-1.16h1.6a3.31,3.31,0,0,0,2.4-.85,3,3,0,0,0,.89-2.3,3,3,0,0,0-.94-2.36,3.75,3.75,0,0,0-2.6-.84H81.49v6.35Zm1.27,1.16H80.2V70h2.94a4.58,4.58,0,0,1,3.31,1.22,4.21,4.21,0,0,1,1.26,3.17,4.46,4.46,0,0,1-.47,2,4.23,4.23,0,0,1-2.64,2.12A7.61,7.61,0,0,1,82.76,78.74Z" transform="translate(-34.67 -2.55)" fill="#fff" fill-rule="evenodd"/><path d="M191.83,76.22H193a1.6,1.6,0,0,0,.42,1.08,1.34,1.34,0,0,0,1,.4,1.48,1.48,0,0,0,1.09-.4,1.42,1.42,0,0,0,.41-1.08,1.28,1.28,0,0,0-.3-.91,2.91,2.91,0,0,0-1.26-.61l-.17,0a3,3,0,0,1-1.65-1,2,2,0,0,1-.35-.63,2.08,2.08,0,0,1-.12-.71,2.43,2.43,0,0,1,.7-1.81,2.47,2.47,0,0,1,1.82-.69,2.32,2.32,0,0,1,1.68.62,2.49,2.49,0,0,1,.72,1.7h-1.24a1.21,1.21,0,0,0-.36-.84,1.18,1.18,0,0,0-.85-.33,1.15,1.15,0,0,0-.88.36,1.28,1.28,0,0,0-.35.92,1.16,1.16,0,0,0,.07.37.94.94,0,0,0,.19.32,2.36,2.36,0,0,0,1.15.53q.42.1.63.18a2.84,2.84,0,0,1,1.37.93,2.37,2.37,0,0,1,.46,1.48,2.74,2.74,0,0,1-.75,2,2.62,2.62,0,0,1-2,.78,2.57,2.57,0,0,1-1.9-.74,2.7,2.7,0,0,1-.74-2Zm9.8,2.51h-1.32V70h1.32v8.71Zm7.8,0h-4.3V70h1.32v7.51h3v1.2Zm5.45,0h-.78L210.59,70H212l2.5,6.49L217,70h1.38l-3.5,8.71Zm10.68,0h-4.73V70h4.73v1.16h-3.41v2.6h3.41v1.14h-3.41v2.61h3.41v1.2Zm4.84-4.18h.68a3.92,3.92,0,0,0,2-.43,1.42,1.42,0,0,0,.67-1.29,1.4,1.4,0,0,0-.58-1.24,3.22,3.22,0,0,0-1.82-.39h-1v3.35Zm0,4.18h-1.32V70h2.63a3.85,3.85,0,0,1,2.51.72,2.62,2.62,0,0,1,.86,2.1,2.42,2.42,0,0,1-.73,1.78,2.77,2.77,0,0,1-1.86.77l2.59,3.34h-1.66l-3-4Z" transform="translate(-34.67 -2.55)" fill="#fff" fill-rule="evenodd"/><path d="M249.93,74.08h1a2.58,2.58,0,0,0,1.48-.34,1.27,1.27,0,0,0,.45-1.08,1.33,1.33,0,0,0-.46-1.11,2.31,2.31,0,0,0-1.43-.36h-1v2.89Zm0,4.66h-1.31V70h2.12a7.66,7.66,0,0,1,1.36.09,2.56,2.56,0,0,1,.82.28,2.25,2.25,0,0,1,.9.91,2.47,2.47,0,0,1,.34,1.27,2.41,2.41,0,0,1-.86,1.94,3.48,3.48,0,0,1-2.32.72h-1v3.5Zm11.5,0h-4.31V70h1.33v7.51h3v1.2Zm7.5-3.76-1.29-3.31L266.34,75Zm-3.06,1.23-1,2.53h-1.39L267,70h1.28l3.56,8.71H270.4l-1-2.53Zm10,2.53h-1.32V71.2h-1.71V70h4.73V71.2h-1.7v7.54Zm5.82,0h-1.32V70h1.32v8.71Zm4.82,0h-1.32V70h1.36l4.47,6.6L291,70h1.3v8.71H291L286.44,72l.09,6.78ZM295.69,70H297v5.55a2.74,2.74,0,0,0,.36,1.64,1.53,1.53,0,0,0,1.26.46,1.37,1.37,0,0,0,1.19-.47,2.75,2.75,0,0,0,.35-1.63V70h1.33v5.54a6.79,6.79,0,0,1-.11,1.36,2.28,2.28,0,0,1-.34.81,2.65,2.65,0,0,1-1,.89,3.07,3.07,0,0,1-1.4.29,3.27,3.27,0,0,1-1.47-.29,2.55,2.55,0,0,1-1-.88,2.22,2.22,0,0,1-.35-.78,6.43,6.43,0,0,1-.11-1.4V70Zm10.51,8.71h-1.27V70h2l2.64,6.74L312.17,70h1.93v8.71h-1.24l.09-7.55-3,7.55h-.93l-3-7.55Z" transform="translate(-34.67 -2.55)" fill="#fff" fill-rule="evenodd"/><path d="M94.1,73.12a2.1,2.1,0,1,1-2.21,2.1A2.15,2.15,0,0,1,94.1,73.12Z" transform="translate(-34.67 -2.55)" fill="#ffca05" fill-rule="evenodd"/><path d="M184.14,73.12a2.1,2.1,0,1,1-2.2,2.1A2.15,2.15,0,0,1,184.14,73.12Z" transform="translate(-34.67 -2.55)" fill="#ffca05" fill-rule="evenodd"/><path d="M241.77,73.12a2.1,2.1,0,1,1-2.19,2.1A2.16,2.16,0,0,1,241.77,73.12Z" transform="translate(-34.67 -2.55)" fill="#ffca05" fill-rule="evenodd"/><path d="M35.26,11.76v-9h3.52A4.5,4.5,0,0,1,40.5,3a2.17,2.17,0,0,1,1,.84A2.22,2.22,0,0,1,41.89,5a2,2,0,0,1-.33,1.09,2.38,2.38,0,0,1-1,.83,2.42,2.42,0,0,1,1.3.82,2.1,2.1,0,0,1,.46,1.37,2.5,2.5,0,0,1-.28,1.18,2.23,2.23,0,0,1-.69.84,2.82,2.82,0,0,1-1,.45,6.52,6.52,0,0,1-1.51.15ZM36.5,6.52h2a4.6,4.6,0,0,0,1.18-.11,1.2,1.2,0,0,0,.95-1.24,1.4,1.4,0,0,0-.22-.79,1.1,1.1,0,0,0-.64-.47,5.17,5.17,0,0,0-1.42-.13H36.5V6.52Zm0,4.17h2.34a5.45,5.45,0,0,0,.84,0,2,2,0,0,0,.72-.25,1.26,1.26,0,0,0,.47-.5,1.56,1.56,0,0,0,.19-.76,1.46,1.46,0,0,0-.27-.88A1.42,1.42,0,0,0,40,7.73a4.8,4.8,0,0,0-1.37-.15H36.5v3.11Zm14.33,1.07v-9h1.24V6.43h4.87V2.71h1.24v9.05H56.94V7.5H52.07v4.26Zm16.37,0v-9h1.24v9.05Zm10.13,0v-9h1.86l2.22,6.41c.21.6.36,1,.45,1.34.11-.33.27-.81.5-1.45l2.24-6.3h1.67v9.05h-1.2V4.19l-2.72,7.57H81.23l-2.71-7.7v7.7Zm16.65,0,3.6-9h1.34l3.84,9.05h-1.42L100.25,9H96.33l-1,2.74ZM96.69,8h3.18l-1-2.5c-.3-.76-.52-1.39-.67-1.88a10.66,10.66,0,0,1-.5,1.73L96.69,8Zm21.46.17V7.15h4V10.5a7.09,7.09,0,0,1-1.88,1.06,5.73,5.73,0,0,1-2,.35,5.48,5.48,0,0,1-2.51-.57A3.82,3.82,0,0,1,114,9.69a5.08,5.08,0,0,1-.58-2.41A5.43,5.43,0,0,1,114,4.82a3.73,3.73,0,0,1,1.64-1.71,5.46,5.46,0,0,1,2.48-.55,5.05,5.05,0,0,1,1.83.32,3,3,0,0,1,1.29.88A3.85,3.85,0,0,1,122,5.24l-1.12.3a3.35,3.35,0,0,0-.52-1.09,2.2,2.2,0,0,0-.9-.63,3.33,3.33,0,0,0-1.29-.24,4.11,4.11,0,0,0-1.47.25,2.91,2.91,0,0,0-1,.66,3.11,3.11,0,0,0-.59.9,4.51,4.51,0,0,0-.36,1.82,4.37,4.37,0,0,0,.43,2,2.73,2.73,0,0,0,1.26,1.21,4,4,0,0,0,1.75.4,4.26,4.26,0,0,0,1.57-.31,4,4,0,0,0,1.17-.63V8.21Zm12.17-.86a4.78,4.78,0,0,1,1.25-3.52,4.32,4.32,0,0,1,3.23-1.28,4.58,4.58,0,0,1,2.34.6,3.94,3.94,0,0,1,1.59,1.67,5.18,5.18,0,0,1,.55,2.43,5.08,5.08,0,0,1-.58,2.46,3.82,3.82,0,0,1-1.63,1.65,4.79,4.79,0,0,1-2.27.55,4.57,4.57,0,0,1-2.37-.61,4.08,4.08,0,0,1-1.58-1.69,4.91,4.91,0,0,1-.53-2.26Zm1.27,0A3.59,3.59,0,0,0,132.5,10a3.26,3.26,0,0,0,4.59,0,3.72,3.72,0,0,0,.91-2.7,4.42,4.42,0,0,0-.39-1.92A2.82,2.82,0,0,0,136.48,4a3.17,3.17,0,0,0-1.67-.46,3.22,3.22,0,0,0-2.27.88,3.81,3.81,0,0,0-.95,2.91Zm16,4.39v-9h1.24v8h4.61v1.07Zm14.07,0v-9h3.23a8.64,8.64,0,0,1,1.67.13,3.23,3.23,0,0,1,1.37.65A3.63,3.63,0,0,1,169,5a5.73,5.73,0,0,1,.37,2.15A6,6,0,0,1,169.14,9a4.51,4.51,0,0,1-.64,1.32,3.28,3.28,0,0,1-.85.82,3.7,3.7,0,0,1-1.12.46,6.83,6.83,0,0,1-1.51.15Zm1.24-1.07h2a5.12,5.12,0,0,0,1.46-.16,2.25,2.25,0,0,0,.84-.47,3,3,0,0,0,.69-1.15,5.54,5.54,0,0,0,.24-1.74A4.1,4.1,0,0,0,167.63,5a2.36,2.36,0,0,0-1.17-1,4.86,4.86,0,0,0-1.61-.19h-2v6.91Zm22.28-3.36a1.49,1.49,0,0,1,.48-1.11,1.68,1.68,0,0,1,2.29,0,1.52,1.52,0,0,1,0,2.22,1.66,1.66,0,0,1-2.29,0,1.49,1.49,0,0,1-.48-1.11Zm19.28,4.43v-9H208a8.37,8.37,0,0,1,1.42.09,3,3,0,0,1,1.16.42,2.25,2.25,0,0,1,.75.88,2.66,2.66,0,0,1,.29,1.23,2.74,2.74,0,0,1-.76,2,3.72,3.72,0,0,1-2.75.8h-2.41v3.68ZM205.68,7h2.43a2.59,2.59,0,0,0,1.7-.43,1.5,1.5,0,0,0,.51-1.21,1.61,1.61,0,0,0-.3-1,1.46,1.46,0,0,0-.78-.53,5.81,5.81,0,0,0-1.16-.08h-2.4V7Zm20.39-4.3h1.24V7.94a6.1,6.1,0,0,1-.32,2.17,2.69,2.69,0,0,1-1.16,1.3,4.13,4.13,0,0,1-2.19.5,4.68,4.68,0,0,1-2.15-.43,2.49,2.49,0,0,1-1.19-1.27,5.85,5.85,0,0,1-.36-2.27V2.71h1.24V7.94a5,5,0,0,0,.22,1.73,1.72,1.72,0,0,0,.78.86,2.82,2.82,0,0,0,1.36.31,2.65,2.65,0,0,0,2-.6,3.41,3.41,0,0,0,.58-2.3V2.71Zm10.06,9.05v-9h4.16a5.72,5.72,0,0,1,1.9.25,2.05,2.05,0,0,1,1.05.86,2.5,2.5,0,0,1,.39,1.36A2.23,2.23,0,0,1,243,6.8a3.34,3.34,0,0,1-2,.84,3.55,3.55,0,0,1,.74.46,5.88,5.88,0,0,1,1,1.2l1.63,2.46h-1.56l-1.24-1.88c-.36-.54-.66-1-.89-1.25a2.79,2.79,0,0,0-.63-.6,1.66,1.66,0,0,0-.57-.24,3.59,3.59,0,0,0-.69,0h-1.44v4Zm1.24-5H240a4.21,4.21,0,0,0,1.33-.17,1.43,1.43,0,0,0,1-1.36,1.29,1.29,0,0,0-.49-1,2.28,2.28,0,0,0-1.52-.42h-3v3Zm15,5.05v-9h6.77V3.78h-5.53V6.55h5.18V7.61h-5.18v3.08h5.75v1.07Zm23.83-3.55V7.15h4V10.5a7.09,7.09,0,0,1-1.88,1.06,5.73,5.73,0,0,1-2,.35,5.48,5.48,0,0,1-2.51-.57,3.82,3.82,0,0,1-1.7-1.65,5.08,5.08,0,0,1-.58-2.41,5.43,5.43,0,0,1,.58-2.46,3.73,3.73,0,0,1,1.64-1.71,5.46,5.46,0,0,1,2.48-.55,5.05,5.05,0,0,1,1.83.32,3,3,0,0,1,1.29.88A3.85,3.85,0,0,1,280,5.24l-1.12.3a3.35,3.35,0,0,0-.52-1.09,2.2,2.2,0,0,0-.9-.63,3.33,3.33,0,0,0-1.29-.24,4.07,4.07,0,0,0-1.47.25,2.91,2.91,0,0,0-1,.66,3.11,3.11,0,0,0-.59.9,4.51,4.51,0,0,0-.36,1.82,4.37,4.37,0,0,0,.43,2,2.73,2.73,0,0,0,1.26,1.21,4,4,0,0,0,1.75.4,4.26,4.26,0,0,0,1.57-.31,4,4,0,0,0,1.17-.63V8.21Zm12.17-.86a4.78,4.78,0,0,1,1.25-3.52,4.32,4.32,0,0,1,3.23-1.28,4.58,4.58,0,0,1,2.34.6,3.94,3.94,0,0,1,1.59,1.67,5.18,5.18,0,0,1,.55,2.43,5.08,5.08,0,0,1-.58,2.46,3.82,3.82,0,0,1-1.63,1.65,4.79,4.79,0,0,1-2.27.55,4.57,4.57,0,0,1-2.37-.61,4.08,4.08,0,0,1-1.58-1.69,4.91,4.91,0,0,1-.53-2.26Zm1.27,0a3.59,3.59,0,0,0,.91,2.58,3.26,3.26,0,0,0,4.59,0,3.72,3.72,0,0,0,.91-2.7,4.42,4.42,0,0,0-.39-1.92A2.88,2.88,0,0,0,294.5,4a3.17,3.17,0,0,0-1.67-.46,3.22,3.22,0,0,0-2.27.88,3.81,3.81,0,0,0-.95,2.91Zm16,4.39v-9h1.24v8h4.61v1.07Zm14.07,0v-9h3.23a8.64,8.64,0,0,1,1.67.13,3.23,3.23,0,0,1,1.37.65A3.63,3.63,0,0,1,327,5a5.73,5.73,0,0,1,.37,2.15A6,6,0,0,1,327.16,9a4.51,4.51,0,0,1-.64,1.32,3.28,3.28,0,0,1-.85.82,3.7,3.7,0,0,1-1.12.46,6.83,6.83,0,0,1-1.51.15Zm1.24-1.07h2a5.12,5.12,0,0,0,1.46-.16,2.25,2.25,0,0,0,.84-.47,3,3,0,0,0,.69-1.15,5.54,5.54,0,0,0,.24-1.74A4.1,4.1,0,0,0,325.65,5a2.36,2.36,0,0,0-1.17-1,4.86,4.86,0,0,0-1.61-.19h-2Z" transform="translate(-34.67 -2.55)" fill="#fff" fill-rule="evenodd"/><path d="M142.91,114.68l.81-.07a1.8,1.8,0,0,0,.27.8,1.49,1.49,0,0,0,.65.51,2.66,2.66,0,0,0,1,.19,2.33,2.33,0,0,0,.87-.15,1.14,1.14,0,0,0,.56-.4.93.93,0,0,0,.18-.55.91.91,0,0,0-.17-.54,1.34,1.34,0,0,0-.59-.38,12,12,0,0,0-1.16-.32,6.32,6.32,0,0,1-1.25-.4,1.73,1.73,0,0,1-.69-.61,1.5,1.5,0,0,1-.23-.81,1.6,1.6,0,0,1,.28-.91,1.7,1.7,0,0,1,.81-.65,3.09,3.09,0,0,1,1.2-.22,3.16,3.16,0,0,1,1.27.23,1.81,1.81,0,0,1,.85.68,2,2,0,0,1,.32,1l-.83.06a1.3,1.3,0,0,0-.45-.93,1.73,1.73,0,0,0-1.13-.32,1.83,1.83,0,0,0-1.14.29.87.87,0,0,0-.35.69.72.72,0,0,0,.25.57,3.49,3.49,0,0,0,1.3.47,7.87,7.87,0,0,1,1.43.41,2,2,0,0,1,.84.66,1.64,1.64,0,0,1,.27.93,1.73,1.73,0,0,1-.3,1,1.89,1.89,0,0,1-.85.72,3.13,3.13,0,0,1-1.25.25,3.77,3.77,0,0,1-1.48-.26,2.07,2.07,0,0,1-.93-.77A2.13,2.13,0,0,1,142.91,114.68Z" transform="translate(-34.67 -2.55)" fill="#fff"/><path d="M152.8,116.77v-6.49h.86v6.49Z" transform="translate(-34.67 -2.55)" fill="#fff"/><path d="M158.56,116.77v-6.49h.88l3.41,5.09v-5.09h.82v6.49h-.88l-3.41-5.1v5.1Z" transform="translate(-34.67 -2.55)" fill="#fff"/><path d="M173.15,114.49l.86.22a2.86,2.86,0,0,1-1,1.61,2.61,2.61,0,0,1-1.71.56,3.05,3.05,0,0,1-1.71-.43,2.65,2.65,0,0,1-1-1.24,4.39,4.39,0,0,1-.34-1.74,4,4,0,0,1,.38-1.77,2.66,2.66,0,0,1,1.11-1.14,3.21,3.21,0,0,1,1.57-.39,2.49,2.49,0,0,1,2.57,1.89l-.85.2a2,2,0,0,0-.66-1,1.75,1.75,0,0,0-1.08-.32,2.1,2.1,0,0,0-1.25.36,1.89,1.89,0,0,0-.7,1,3.81,3.81,0,0,0-.21,1.25,4,4,0,0,0,.24,1.45,1.77,1.77,0,0,0,.75.92,2.15,2.15,0,0,0,1.11.3,1.82,1.82,0,0,0,1.22-.41A2.17,2.17,0,0,0,173.15,114.49Z" transform="translate(-34.67 -2.55)" fill="#fff"/><path d="M178.48,116.77v-6.49h4.69V111h-3.83v2h3.59v.76h-3.59V116h4v.77Z" transform="translate(-34.67 -2.55)" fill="#fff"/><path d="M193.11,116.77h-.8v-5.08a4.56,4.56,0,0,1-.75.55,6.32,6.32,0,0,1-.84.41v-.77a5,5,0,0,0,1.17-.76,2.9,2.9,0,0,0,.7-.87h.52Z" transform="translate(-34.67 -2.55)" fill="#fff"/><path d="M198.67,115.27l.76-.07a1.36,1.36,0,0,0,.37.78,1.05,1.05,0,0,0,.71.24,1.22,1.22,0,0,0,.64-.16,1.52,1.52,0,0,0,.46-.45,3,3,0,0,0,.29-.76,4,4,0,0,0,.12-1v-.16a1.84,1.84,0,0,1-.65.62,1.78,1.78,0,0,1-.9.24,1.84,1.84,0,0,1-1.37-.59,2.14,2.14,0,0,1-.55-1.54,2.18,2.18,0,0,1,.58-1.59,2,2,0,0,1,1.46-.6,2.07,2.07,0,0,1,1.16.34,2.12,2.12,0,0,1,.79,1,4.8,4.8,0,0,1,.28,1.83,5.9,5.9,0,0,1-.27,2,2.35,2.35,0,0,1-.81,1.13,2.1,2.1,0,0,1-1.25.38,1.81,1.81,0,0,1-1.24-.42A1.78,1.78,0,0,1,198.67,115.27Zm3.26-2.87a1.53,1.53,0,0,0-.37-1.09,1.12,1.12,0,0,0-.88-.4,1.2,1.2,0,0,0-.92.43,1.63,1.63,0,0,0-.39,1.13,1.4,1.4,0,0,0,.37,1,1.26,1.26,0,0,0,.92.38,1.21,1.21,0,0,0,.91-.38A1.53,1.53,0,0,0,201.93,112.4Z" transform="translate(-34.67 -2.55)" fill="#fff"/><path d="M211.18,116v.77h-4.3a1.45,1.45,0,0,1,.1-.55,3,3,0,0,1,.52-.87,8.06,8.06,0,0,1,1.05-1A9.12,9.12,0,0,0,210,113a1.68,1.68,0,0,0,.37-1,1.07,1.07,0,0,0-.34-.8,1.25,1.25,0,0,0-.88-.32,1.23,1.23,0,0,0-.92.34,1.28,1.28,0,0,0-.35,1l-.82-.08a2,2,0,0,1,.63-1.4,2.17,2.17,0,0,1,1.47-.48,2,2,0,0,1,1.48.52,1.67,1.67,0,0,1,.55,1.28,1.9,1.9,0,0,1-.16.77,3,3,0,0,1-.53.79,12.88,12.88,0,0,1-1.23,1.14c-.48.41-.79.68-.92.82a2.56,2.56,0,0,0-.34.43Z" transform="translate(-34.67 -2.55)" fill="#fff"/><path d="M215.43,115.07l.83-.07a1.54,1.54,0,0,0,.44.92,1.16,1.16,0,0,0,.81.3,1.28,1.28,0,0,0,1-.43,1.66,1.66,0,0,0,.4-1.15,1.48,1.48,0,0,0-.39-1.08,1.33,1.33,0,0,0-1-.39,1.48,1.48,0,0,0-.7.17,1.41,1.41,0,0,0-.48.46l-.75-.1.63-3.34h3.23v.77h-2.59l-.35,1.74a2.13,2.13,0,0,1,1.22-.41,2,2,0,0,1,1.44.59,2.07,2.07,0,0,1,.58,1.52,2.36,2.36,0,0,1-.51,1.52,2.06,2.06,0,0,1-1.71.79,2.08,2.08,0,0,1-1.44-.5A1.88,1.88,0,0,1,215.43,115.07Z" transform="translate(-34.67 -2.55)" fill="#fff"/></svg>