<svg id="Layer_1" data-name="Layer 1" xmlns="http://www.w3.org/2000/svg" xmlns:xlink="http://www.w3.org/1999/xlink" viewBox="0 0 99.04 76.23"><defs><clipPath id="clip-path" transform="translate(-0.49 -11.06)"><rect x="0.5" y="11.06" width="100.93" height="77.88" fill="none"/></clipPath></defs><title>no 1</title><g clip-path="url(#clip-path)"><path d="M48.94,67.17a3.22,3.22,0,0,1-1.11.41,5.76,5.76,0,0,1-1.25.11v2.16h2.88v7.39h3.12v-12H50.14a2.44,2.44,0,0,1-.38,1.21,2.52,2.52,0,0,1-.82.77Zm0,0" transform="translate(-0.49 -11.06)"/><path d="M6.94,48.61a6.2,6.2,0,0,0-.67-5.7,8.35,8.35,0,0,0-4.94-3.54,7,7,0,0,0,.49,6.12,7.15,7.15,0,0,0,5.12,3.12Zm0,0" transform="translate(-0.49 -11.06)"/></g><path d="M12.34,49.08a7.17,7.17,0,0,0,4.25-4.24,7,7,0,0,0-1-6.07,8.39,8.39,0,0,0-4,4.61,6.23,6.23,0,0,0,.7,5.7Zm0,0" transform="translate(-0.49 -11.06)"/><path d="M13.55,52.75A6.24,6.24,0,0,0,15,58.32a7.25,7.25,0,0,0,3.65-4.76,7.06,7.06,0,0,0-1.76-5.9,8.32,8.32,0,0,0-3.33,5.09Zm0,0" transform="translate(-0.49 -11.06)"/><path d="M20.4,64.37a7.29,7.29,0,0,0,3.19-5.09,7,7,0,0,0-2.32-5.71A8.37,8.37,0,0,0,18.44,59a6.21,6.21,0,0,0,2,5.41Zm0,0" transform="translate(-0.49 -11.06)"/><path d="M27.55,70.08a7.26,7.26,0,0,0,1.6-5.8,7.09,7.09,0,0,0-3.86-4.81,8.41,8.41,0,0,0-1.17,6,6.22,6.22,0,0,0,3.43,4.63Zm0,0" transform="translate(-0.49 -11.06)"/><g clip-path="url(#clip-path)"><path d="M9.51,41.43a6.16,6.16,0,0,0,2.6-5.12A8.37,8.37,0,0,0,10,30.62,7,7,0,0,0,7,36a7.18,7.18,0,0,0,2.54,5.42Zm0,0" transform="translate(-0.49 -11.06)"/><path d="M8.62,55.72a6.27,6.27,0,0,0-2.33-5.26A8.44,8.44,0,0,0,.51,48.52a7.07,7.07,0,0,0,2.28,5.74,7.28,7.28,0,0,0,5.83,1.46Zm0,0" transform="translate(-0.49 -11.06)"/></g><path d="M12.65,62.46a6.21,6.21,0,0,0-3.44-4.61,8.29,8.29,0,0,0-6.07-.6,7,7,0,0,0,3.5,5.07,7.3,7.3,0,0,0,6,.14Zm0,0" transform="translate(-0.49 -11.06)"/><path d="M12.92,64.28a8.44,8.44,0,0,0-6,1.26,7.07,7.07,0,0,0,4.87,3.79,7.26,7.26,0,0,0,5.76-1.69,6.24,6.24,0,0,0-4.67-3.36Zm0,0" transform="translate(-0.49 -11.06)"/><path d="M19.72,69.77a8.46,8.46,0,0,0-5.76,2,7,7,0,0,0,5.27,3.16,7.23,7.23,0,0,0,5.52-2.35,6.2,6.2,0,0,0-5-2.79Zm0,0" transform="translate(-0.49 -11.06)"/><path d="M10.32,43.35,8.68,43c0,.18-3.84,18,21.72,31.23l.78-1.51C6.85,60.16,10.17,44,10.32,43.35Zm0,0" transform="translate(-0.49 -11.06)"/><path d="M66.48,79.81H64.87V61.71h1.61V59.06h-2V57.22s-13-2.42-13-7.8c0-1.76,1.6-3.7,3.71-6.22l.53,1.46,3.47-1.25L59,42.82c5.67.33,10.37-1.17,14-4.5,9.09-8.29,8.09-24.83,8-25.53L81,11.08H70.4L71,13.35a3.19,3.19,0,0,1-.35,2.56c-1.14,1.8-4.09,2.76-5.14,3h0c0-.69,0-1.4,0-2.12H68V13.84H32.06v2.92h2.52c0,.71,0,1.43,0,2.11h0c-1-.21-4-1.17-5.14-3a3.21,3.21,0,0,1-.35-2.56l.54-2.28H19l-.13,1.72c0,.7-1,17.23,8.05,25.52,3.65,3.32,8.35,4.84,14,4.5l-.21.6,3.46,1.25.52-1.48c2.12,2.54,3.73,4.47,3.73,6.22,0,5.38-13,7.8-13,7.8V59h-2V61.7h1.61V79.78H33.55v3H32.39v4.49H50v0H67.63V82.81H66.48ZM65.09,23.53h2.57V22.09c1.74-.57,4.52-1.8,6-4.19a6.73,6.73,0,0,0,1-3.13h2.74c0,4.22-.67,15.16-6.89,20.82-3,2.76-7.08,3.91-12.05,3.49a33.82,33.82,0,0,0,6.55-15.55Zm-35.63,12C23.22,29.92,22.57,19,22.57,14.74h2.72a6.83,6.83,0,0,0,1,3.15c1.52,2.39,4.31,3.62,6,4.18v1.45h2.57A33.68,33.68,0,0,0,41.5,39.06c-5,.43-9-.73-12-3.48ZM62.1,79.81H50v0H37.93V62.38H50v0H62.1Zm0,0" transform="translate(-0.49 -11.06)"/><path d="M93.08,48.63a7.2,7.2,0,0,0,5.13-3.12,7,7,0,0,0,.5-6.13,8.42,8.42,0,0,0-5,3.54,6.22,6.22,0,0,0-.67,5.71Zm0,0" transform="translate(-0.49 -11.06)"/><path d="M87.68,49.1a6.22,6.22,0,0,0,.7-5.7,8.35,8.35,0,0,0-4-4.61,7,7,0,0,0-1,6.07,7.2,7.2,0,0,0,4.24,4.24Zm0,0" transform="translate(-0.49 -11.06)"/><path d="M85,58.33a6.22,6.22,0,0,0,1.44-5.56,8.4,8.4,0,0,0-3.33-5.1,7.09,7.09,0,0,0-1.77,5.9A7.28,7.28,0,0,0,85,58.33Zm0,0" transform="translate(-0.49 -11.06)"/><path d="M78.75,53.59a7,7,0,0,0-2.31,5.72,7.28,7.28,0,0,0,3.19,5.08,6.25,6.25,0,0,0,2-5.4,8.44,8.44,0,0,0-2.85-5.4Zm0,0" transform="translate(-0.49 -11.06)"/><path d="M70.89,64.29a7.23,7.23,0,0,0,1.58,5.8,6.22,6.22,0,0,0,3.44-4.61,8.43,8.43,0,0,0-1.17-6,7.06,7.06,0,0,0-3.85,4.79Zm0,0" transform="translate(-0.49 -11.06)"/><path d="M90.53,41.45A7.17,7.17,0,0,0,93.05,36a7,7,0,0,0-3-5.38,8.43,8.43,0,0,0-2.14,5.7,6.17,6.17,0,0,0,2.62,5.11Zm0,0" transform="translate(-0.49 -11.06)"/><path d="M99.52,48.56a8.41,8.41,0,0,0-5.79,1.91,6.23,6.23,0,0,0-2.3,5.26,7.24,7.24,0,0,0,5.81-1.46,7.05,7.05,0,0,0,2.28-5.71Zm0,0" transform="translate(-0.49 -11.06)"/><path d="M90.83,57.86a6.21,6.21,0,0,0-3.44,4.61,7.22,7.22,0,0,0,6-.13,7.07,7.07,0,0,0,3.5-5.09,8.46,8.46,0,0,0-6,.61Zm0,0" transform="translate(-0.49 -11.06)"/><path d="M87.12,64.29a6.28,6.28,0,0,0-4.69,3.37,7.31,7.31,0,0,0,5.77,1.68,7.06,7.06,0,0,0,4.86-3.76,8.34,8.34,0,0,0-5.94-1.29Zm0,0" transform="translate(-0.49 -11.06)"/><path d="M75.27,72.57a7.22,7.22,0,0,0,5.52,2.36,7,7,0,0,0,5.28-3.17,8.44,8.44,0,0,0-5.75-2,6.26,6.26,0,0,0-5,2.78Zm0,0" transform="translate(-0.49 -11.06)"/><path d="M91.35,43l-1.65.37c.16.67,3.49,16.81-20.85,29.36l.78,1.49C95.18,61,91.39,43.17,91.35,43Zm0,0" transform="translate(-0.49 -11.06)"/></svg>