<svg id="Layer_1" data-name="Layer 1" xmlns="http://www.w3.org/2000/svg" viewBox="0 0 98.2 97.07"><title>headphone</title><path d="M24.38,39.66a4.45,4.45,0,0,0,2.93,3.82v8.08a2,2,0,1,0,3.91,0V43.74h.53a18.4,18.4,0,0,0,33.58,8,10,10,0,0,0,3.74-1.12c5.65-3,6.33-10.61,6.36-10.93h0L76.17,31a4.47,4.47,0,0,0-4.45-4.85H69.43L69.7,22,70,16.76A14.36,14.36,0,0,0,55.71,1.47H44.29A14.36,14.36,0,0,0,30,16.76l.5,7.79.11,1.58H28.08A4.47,4.47,0,0,0,23.63,31ZM57,54.21A14.48,14.48,0,0,1,35.55,42.47L34.49,26.23c11-1,17-5,20-7.93a11.57,11.57,0,0,0,3.39,2.5,38.91,38.91,0,0,0,7.82,2.55L64.45,42.47a14.85,14.85,0,0,1-1.39,5.33,17.81,17.81,0,0,1-5.73-1.86,4.9,4.9,0,1,0-4.79,3.86A4.83,4.83,0,0,0,55,49.14a25.05,25.05,0,0,0,5.67,2.19A14.67,14.67,0,0,1,57,54.21Zm-4.44-8.32a1,1,0,1,1,1-1A1,1,0,0,1,52.54,45.89Zm15.05,1a18.69,18.69,0,0,0,.66-3.18h2A7.64,7.64,0,0,1,67.59,46.92Zm4.13-16.87a.53.53,0,0,1,.55.59l-.74,8.69a.55.55,0,0,1-.55.5H68.54l.64-9.78ZM63.34,8.68a10.4,10.4,0,0,1,2.8,7.83L66,19.39a32.28,32.28,0,0,1-6.29-2.07c-2.13-1.1-2.61-2-2.62-2.29h0l3.23-8.59A10.65,10.65,0,0,1,63.34,8.68Zm-26.68,0a10.36,10.36,0,0,1,7.63-3.3H55.71c.25,0,.51,0,.75,0l-3,8.08c-.49.81-4.93,7.5-19.19,8.83l-.38-5.81A10.4,10.4,0,0,1,36.66,8.68Zm-9,21.54a.52.52,0,0,1,.4-.17h2.74l.64,9.78H28.83a.55.55,0,0,1-.55-.5l-.75-8.69A.56.56,0,0,1,27.68,30.22Z" transform="translate(-0.9 -1.47)"/><path d="M99.07,96.23,97.18,85.79A29.06,29.06,0,0,0,74,62.43a29.43,29.43,0,0,0-5.38-.5h-5.7a1.92,1.92,0,0,0-1.38.57L50,74,38.47,62.5a1.92,1.92,0,0,0-1.38-.57h-5.7a29.43,29.43,0,0,0-5.38.5h0A29.06,29.06,0,0,0,2.82,85.79L.93,96.23a1.95,1.95,0,0,0,1.92,2.3h94.3a1.95,1.95,0,0,0,1.92-2.3ZM63.72,65.84h5.65L50,85.22l-2.83-2.83,4.21-4.21Zm-27.44,0,10.95,11L44.4,79.62,30.63,65.85h5.65ZM5.2,94.62l1.47-8.14a25.27,25.27,0,0,1,19.06-20L48.62,89.37a.64.64,0,0,0,.15.13,1.93,1.93,0,0,0,2.46,0,.64.64,0,0,0,.15-.13L74.27,66.48a25.27,25.27,0,0,1,19.06,20l1.47,8.14Z" transform="translate(-0.9 -1.47)"/><path d="M29.26,55.48a2,2,0,0,0-2,2v.79a2,2,0,0,0,3.91,0v-.79A2,2,0,0,0,29.26,55.48Z" transform="translate(-0.9 -1.47)"/></svg>