<svg id="Layer_1" data-name="Layer 1" xmlns="http://www.w3.org/2000/svg" viewBox="0 0 61.19 98.15"><title>mouse</title><path d="M50.1.92a30.63,30.63,0,0,0-30.59,30.6v37a30.6,30.6,0,1,0,61.19,0v-37A30.63,30.63,0,0,0,50.1.92ZM77,31.52V32a57.87,57.87,0,0,1-25.7,6.62V28.39a5.77,5.77,0,0,0,4.53-5.62V15.1a5.78,5.78,0,0,0-4.53-5.63V4.62A27,27,0,0,1,77,31.52ZM50.1,11.79a3.31,3.31,0,0,1,3.31,3.31v7.67a3.31,3.31,0,1,1-6.62,0V15.1a3.31,3.31,0,0,1,3.31-3.31ZM48.88,4.62V9.47a5.77,5.77,0,0,0-4.53,5.63v7.67a5.76,5.76,0,0,0,4.53,5.62V38.62A57.91,57.91,0,0,1,23.17,32v-.48A27,27,0,0,1,48.88,4.62ZM50.1,95.41A27,27,0,0,1,23.17,68.48V34.75A60.43,60.43,0,0,0,50.1,41.08,60.4,60.4,0,0,0,77,34.75V68.48A27,27,0,0,1,50.1,95.41Zm0,0" transform="translate(-19.51 -0.92)"/></svg>