<svg id="Layer_1" data-name="Layer 1" xmlns="http://www.w3.org/2000/svg" xmlns:xlink="http://www.w3.org/1999/xlink" viewBox="0 0 98.1 98.1"><defs><clipPath id="clip-path" transform="translate(-1 -1.12)"><rect x="1" y="0.99" width="98.18" height="98.18" fill="none"/></clipPath></defs><title>flight</title><g clip-path="url(#clip-path)"><path d="M47.22,50.3a1.91,1.91,0,1,0,2.7,0,1.91,1.91,0,0,0-2.7,0Zm0,0" transform="translate(-1 -1.12)"/><path d="M77.68,6.73c-3.29,2.54-4.18,3.86-15.84,15.4l-7-1.14,3.2-3.21a5.75,5.75,0,1,0-8.13-8.13l-9.06,9.06L9.17,13.55A6.47,6.47,0,0,0,4.35,25.17L35.92,48,30,54a48.42,48.42,0,0,0-6.35,8.29L8.94,57.91A6.2,6.2,0,0,0,3.66,69L15.74,77.3c-2.1,4.64-3.38,8-3.44,8.15a1.91,1.91,0,0,0,2.47,2.47c.15-.06,3.51-1.33,8.15-3.44l8.36,12.08a6.19,6.19,0,0,0,11-5.28L38,76.56a48.42,48.42,0,0,0,8.29-6.35l5.91-5.91L75.05,95.87A6.47,6.47,0,0,0,86.67,91L81.51,59.36l9.06-9.06a5.75,5.75,0,0,0-8.13-8.13l-3.21,3.2-1.13-7C89.65,26.71,90.94,25.84,93.49,22.55h0c5.91-7.66,7.29-15.4,3.44-19.26S85.34.81,77.68,6.73ZM52.63,12.36a1.92,1.92,0,0,1,2.71,2.71l-5.16,5.16-4.66-.76Zm-46,9.7a2.64,2.64,0,0,1,2-4.73L58.5,25.46,38.67,45.29ZM5.52,62.19a2.32,2.32,0,0,1,2.33-.6l13.78,4q-2.11,3.7-4.25,8.14l-11.53-8a2.36,2.36,0,0,1-.33-3.61ZM38,94.7a2.36,2.36,0,0,1-3.61-.32l-8-11.54c2.95-1.42,5.68-2.84,8.14-4.25l4.05,13.78A2.34,2.34,0,0,1,38,94.7ZM85.15,44.88a1.92,1.92,0,0,1,2.71,2.71L80.75,54.7,80,50ZM82.89,91.66a2.64,2.64,0,0,1-4.73,2L54.93,61.55,74.76,41.72ZM43.56,67.5a48.49,48.49,0,0,1-9.17,6.77,142.22,142.22,0,0,1-16.81,8.37,140.92,140.92,0,0,1,8.56-17.12,47.57,47.57,0,0,1,6.58-8.86C79.53,10,76.75,12.38,79.59,10.1a10,10,0,0,1,7.86,2.67,10,10,0,0,1,2.67,7.86c-2.28,2.84.1.1-46.56,46.87ZM93.4,15.59a12.65,12.65,0,0,0-8.77-8.76c2.77-1.41,7.44-3,9.6-.84,1.69,1.7,1.27,5.45-.83,9.6Zm0,0" transform="translate(-1 -1.12)"/></g><path d="M58.05,39.46l-5.41,5.42a1.92,1.92,0,0,0,2.71,2.71l5.41-5.42a1.92,1.92,0,1,0-2.71-2.71Zm0,0" transform="translate(-1 -1.12)"/><path d="M68.89,28.62,63.47,34a1.92,1.92,0,0,0,2.71,2.71l5.42-5.42a1.92,1.92,0,1,0-2.71-2.71Zm0,0" transform="translate(-1 -1.12)"/></svg>