<svg id="Layer_1" data-name="Layer 1" xmlns="http://www.w3.org/2000/svg" viewBox="0 0 97.3 90.28"><title>running</title><path d="M98.91,39.81a6,6,0,0,0-7.74-3.34,4,4,0,0,0-.47.21l-4.42,2.21-9-12a2.07,2.07,0,0,0-.4-.38L67,19.91a1.72,1.72,0,0,0-.66-.26L45,16.37a1.63,1.63,0,0,0-1.41.46L31.36,29a5.25,5.25,0,0,0,0,7.43h0a5.27,5.27,0,0,0,7.17.24L48.45,28l8.8,2.52L49.89,46.72,38.59,62.85,25.16,74.94a5.84,5.84,0,1,0,7.61,8.85L47.56,71.68l8.84-8.84,11.22,8.41-2.5,17.41a5.67,5.67,0,0,0,1.33,4.52,5.84,5.84,0,0,0,10.1-2.75l4.29-22.89A1.63,1.63,0,0,0,80.31,66L68,55.25l5.23-14.39,9.66,11a1.64,1.64,0,0,0,1.9.42l11.08-4.91A5.83,5.83,0,0,0,98.91,39.81Zm-4.34,4.61-10,4.41L73.89,36.61a1.65,1.65,0,0,0-2.32-.16,1.86,1.86,0,0,0-.46.68l-6.56,18A1.65,1.65,0,0,0,65,57L77.44,67.85l-4.13,22a2.53,2.53,0,0,1-2.57,2,2.39,2.39,0,0,1-2.39-2.4c0-.11,0-.22,0-.33L71,70.75a1.64,1.64,0,0,0-.64-1.54L57.23,59.36a1.64,1.64,0,0,0-2.15.15l-9.73,9.74-14.67,12a2.55,2.55,0,0,1-3.32-3.87L40.92,65.17a1.12,1.12,0,0,0,.25-.28L52.66,48.48a1.35,1.35,0,0,0,.15-.26L61,30.16A1.64,1.64,0,0,0,60.2,28,2,2,0,0,0,60,27.9L48.49,24.62A1.65,1.65,0,0,0,47,25L36.36,34.23a2,2,0,0,1-2.69-2.88L45.33,19.74l20.15,3.1,9.31,6.21L84.47,42a1.64,1.64,0,0,0,2,.48l5.65-2.83a2.6,2.6,0,0,1,2.13-.11,2.76,2.76,0,0,1,1.6,1.64A2.56,2.56,0,0,1,94.57,44.42Z" transform="translate(-2.07 -4.86)"/><rect x="9.85" y="9.85" width="21.34" height="3.28"/><rect x="3.28" y="9.85" width="3.28" height="3.28"/><rect x="16.41" y="22.98" width="3.28" height="3.28"/><rect y="22.98" width="13.13" height="3.28"/><rect x="8.21" y="36.11" width="16.41" height="3.28"/><rect x="3.28" y="49.24" width="27.91" height="3.28"/><rect x="6.57" y="62.38" width="13.13" height="3.28"/><rect y="62.38" width="3.28" height="3.28"/><rect x="3.28" y="75.51" width="11.49" height="3.28"/><path d="M85.79,13.89V6.5a1.64,1.64,0,0,0-1.64-1.64H76.76a9,9,0,1,0,9,9Zm-9-5.75h5.75V9.8A18.27,18.27,0,0,0,71,14.12c0-.08,0-.15,0-.23A5.75,5.75,0,0,1,76.76,8.14Zm-4.49,9.29a15,15,0,0,1,10.24-4.34v.8a5.73,5.73,0,0,1-10.24,3.54Z" transform="translate(-2.07 -4.86)"/></svg>