<svg id="Layer_1" data-name="Layer 1" xmlns="http://www.w3.org/2000/svg" viewBox="0 0 83.33 98.33"><title>bag</title><path d="M62.37,14.89a1.67,1.67,0,0,1-1.65-1.43A10.83,10.83,0,0,0,41.25,8.62,1.67,1.67,0,0,1,38.92,9a1.65,1.65,0,0,1-.36-2.33A14.17,14.17,0,0,1,64,13a1.66,1.66,0,0,1-1.41,1.88Z" transform="translate(-8.34 -0.84)"/><path d="M86.67,34.17H13.34a1.67,1.67,0,0,1-1.43-2.53l5-8.33a1.67,1.67,0,0,1,1.43-.81H21a1.67,1.67,0,1,1,0,3.33H19.28l-3,5H83.72l-3-5H76.87a1.67,1.67,0,0,1,0-3.33h4.8a1.66,1.66,0,0,1,1.42.81l5,8.33a1.66,1.66,0,0,1-1.42,2.53Z" transform="translate(-8.34 -0.84)"/><path d="M74.93,33.53a1.73,1.73,0,0,1-.38-.05,1.67,1.67,0,0,1-1.24-2L76.37,18.4,56.9,13.84l-1.34,5.7a1.66,1.66,0,1,1-3.24-.75L54,11.46a1.71,1.71,0,0,1,.74-1,1.69,1.69,0,0,1,1.26-.2l22.72,5.31a1.68,1.68,0,0,1,1,.75,1.61,1.61,0,0,1,.2,1.25L76.55,32.24A1.66,1.66,0,0,1,74.93,33.53Z" transform="translate(-8.34 -0.84)"/><path d="M22.36,34a1.66,1.66,0,0,1-1.65-1.47L18.18,11.06a1.67,1.67,0,0,1,1.46-1.85l27.87-3.3a1.7,1.7,0,0,1,1.23.35,1.63,1.63,0,0,1,.62,1.11l1.52,12.85a1.67,1.67,0,0,1-3.31.39L46.25,9.42l-24.56,2.9L24,32.09a1.66,1.66,0,0,1-1.46,1.85Z" transform="translate(-8.34 -0.84)"/><path d="M62.44,33.92a1.67,1.67,0,0,1-1.62-1.27L57.9,20.51,34.3,26.19l1.26,5.25a1.67,1.67,0,1,1-3.24.78l-1.65-6.87a1.65,1.65,0,0,1,1.23-2l26.84-6.46a1.67,1.67,0,0,1,1.26.2,1.64,1.64,0,0,1,.75,1l3.31,13.76a1.66,1.66,0,0,1-1.23,2A1.72,1.72,0,0,1,62.44,33.92Z" transform="translate(-8.34 -0.84)"/><path d="M90,99.16H10a1.69,1.69,0,0,1-1.21-.51,1.72,1.72,0,0,1-.45-1.24l3.33-65a1.67,1.67,0,0,1,1.67-1.58H86.67a1.66,1.66,0,0,1,1.66,1.58l3.33,65A1.64,1.64,0,0,1,90,99.16ZM11.76,95.83H88.24L85.08,34.17H14.92Z" transform="translate(-8.34 -0.84)"/><path d="M62.5,47.5a5,5,0,1,1,5-5A5,5,0,0,1,62.5,47.5Zm0-6.67a1.67,1.67,0,1,0,1.67,1.67A1.67,1.67,0,0,0,62.5,40.83Z" transform="translate(-8.34 -0.84)"/><path d="M37.5,47.5a5,5,0,1,1,5-5A5,5,0,0,1,37.5,47.5Zm0-6.67a1.67,1.67,0,1,0,1.67,1.67A1.67,1.67,0,0,0,37.5,40.83Z" transform="translate(-8.34 -0.84)"/><path d="M62.37,40.83" transform="translate(-8.34 -0.84)" fill="none" stroke="#000" stroke-linecap="round" stroke-linejoin="round" stroke-width="4"/><path d="M50,67.5A14.19,14.19,0,0,1,35.83,53.33V44.17a1.67,1.67,0,0,1,3.34,0v9.16a10.83,10.83,0,1,0,21.66,0V44.81a1.73,1.73,0,0,1-.12-.64,1.66,1.66,0,0,1,1.66-1.67h.13a1.67,1.67,0,0,1,1.67,1.67v9.16A14.19,14.19,0,0,1,50,67.5Z" transform="translate(-8.34 -0.84)"/></svg>